<?xml version="1.0" encoding="UTF-8"?> <svg xmlns="http://www.w3.org/2000/svg" xmlns:xlink="http://www.w3.org/1999/xlink" version="1.1" id="Layer_1" x="0px" y="0px" viewBox="0 0 230 52" style="enable-background:new 0 0 230 52;" xml:space="preserve"> <style type="text/css"> .st0{fill:#A6AE39;} .st1{fill:#BDB532;} .st2{fill:#919A3D;} .st3{fill:#FFFAFC;} .st4{fill:#D5D525;} .st5{fill:#231F20;} </style> <g> <g> <path class="st0" d="M28,1.6c-0.4,0-0.9,0-1.3,0s-0.9,0-1.3,0l1.3,1.3L28,1.6z"></path> <path class="st0" d="M51.6,27.9c0-0.4,0-0.9,0-1.3c0-6.5-2.5-12.4-6.6-16.9l-5.8,5.8L51.6,27.9z"></path> <path class="st1" d="M8.2,9.7c-4.1,4.4-6.6,10.4-6.6,16.9c0,0.5,0,0.9,0,1.3l12.4-12.4L8.2,9.7z"></path> <path class="st0" d="M21.8,33c2.9,2.2,6.9,2.2,9.7,0l-4.9-4.9L21.8,33z"></path> <path class="st2" d="M15.3,39.5L9.8,45c4.4,4.1,10.4,6.6,16.9,6.6c6.5,0,12.4-2.5,16.9-6.6L38,39.5C31.6,45.3,21.8,45.3,15.3,39.5 z"></path> <path class="st3" d="M21.8,33l-6.5,6.5c6.4,5.8,16.3,5.8,22.7,0L31.5,33C28.7,35.2,24.7,35.2,21.8,33z"></path> <path class="st4" d="M33,9.2l5-5c-3-1.5-6.4-2.5-9.9-2.7l-1.3,1.3L33,9.2z"></path> <path class="st0" d="M10.5,31.8c-1.6-5.5-0.4-11.7,3.7-16.2l0,0L1.7,27.9c0.2,3.6,1.1,6.9,2.7,9.9L10.5,31.8z"></path> <path class="st3" d="M14.1,15.6c-4.1,4.5-5.3,10.7-3.7,16.2l9.9-9.9L14.1,15.6z"></path> <path class="st4" d="M39.3,15.6c4.1,4.5,5.3,10.7,3.7,16.2l6.1,6.1c1.5-3,2.5-6.4,2.7-9.9L39.3,15.6L39.3,15.6z"></path> <path class="st5" d="M20.4,9.2l6.3-6.3h0l-1.3-1.3c-3.6,0.2-6.9,1.1-9.9,2.7L20.4,9.2z"></path> <path class="st3" d="M42.9,31.8c1.6-5.5,0.4-11.7-3.7-16.2L33,21.8L42.9,31.8z"></path> <rect x="22.2" y="4.8" transform="matrix(0.7071 -0.7071 0.7071 0.7071 1.2788 21.5734)" class="st3" width="8.9" height="8.9"></rect> <path class="st0" d="M20.4,21.9c-2.4,3.1-2.2,7.6,0.6,10.5h0c0.2,0.2,0.5,0.4,0.7,0.6l4.9-4.9L20.4,21.9z"></path> <path class="st2" d="M14.7,38.9L14.7,38.9c-2.1-2.1-3.5-4.5-4.3-7.1l-6.1,6.1C5.7,40.6,7.6,43,9.8,45l5.5-5.5 C15.1,39.3,14.9,39.1,14.7,38.9z"></path> <path class="st0" d="M38,4.3l-5,5l6.3,6.3l5.8-5.8C43.1,7.5,40.7,5.6,38,4.3z"></path> <path class="st3" d="M21.1,32.3L21.1,32.3c-2.9-2.9-3.1-7.4-0.6-10.5l0,0l-9.9,9.9c0.8,2.6,2.2,5.1,4.3,7.1h0 c0.2,0.2,0.4,0.4,0.6,0.6l6.5-6.5C21.6,32.8,21.3,32.6,21.1,32.3z"></path> <path class="st3" d="M33,9.2l-6.3,6.3l5.6,5.6l0.7,0.8l0,0l6.3-6.3c-0.2-0.2-0.4-0.4-0.6-0.6L33,9.2z"></path> <path class="st2" d="M49,37.8l-6.1-6.1c-0.8,2.6-2.2,5.1-4.3,7.1h0c-0.2,0.2-0.4,0.4-0.6,0.6l5.5,5.5C45.8,43,47.6,40.6,49,37.8z"></path> <path class="st2" d="M14.7,14.9l5.7-5.7l-5-5c-2.7,1.4-5.1,3.2-7.2,5.4l5.8,5.8L14.7,14.9z"></path> <path class="st2" d="M31.5,33c0.3-0.2,0.5-0.4,0.7-0.6h0c2.9-2.9,3.1-7.4,0.6-10.5l-6.2,6.2L31.5,33z"></path> <path class="st3" d="M32.9,21.9c2.4,3.1,2.2,7.6-0.6,10.5h0c-0.2,0.2-0.5,0.4-0.7,0.6l6.5,6.5c0.2-0.2,0.4-0.4,0.6-0.6h0 c2.1-2.1,3.5-4.5,4.3-7.1L32.9,21.9L32.9,21.9z"></path> <path class="st0" d="M26.7,15.5l-6.3-6.3l-5.7,5.7c-0.2,0.2-0.4,0.4-0.6,0.6l6.3,6.3l0,0l0.7-0.8l0,0L26.7,15.5z"></path> <path class="st2" d="M26.7,15.5l-5.6,5.6c-0.2,0.2-0.4,0.5-0.6,0.7l6.2,6.2l6.2-6.2c-0.2-0.3-0.4-0.5-0.6-0.7L26.7,15.5z"></path> <line class="st3" x1="32.4" y1="21.3" x2="33" y2="21.8"></line> </g> <g> <g> <path class="st5" d="M71.2,6C72,6.4,72.6,7,73,7.7c0.4,0.7,0.6,1.6,0.6,2.6s-0.2,1.9-0.6,2.6c-0.4,0.7-1,1.3-1.8,1.7 c-0.8,0.4-1.7,0.6-2.8,0.6h-3.1V5.4h3.1C69.5,5.4,70.4,5.6,71.2,6z M71.3,13.2c0.7-0.7,1-1.6,1-2.8c0-1.2-0.3-2.2-1-2.9 s-1.6-1-2.9-1h-1.8v7.7h1.8C69.7,14.2,70.6,13.8,71.3,13.2z"></path> <path class="st5" d="M77.6,7.7c0.4-0.2,0.9-0.4,1.5-0.4v1.3h-0.3c-1.4,0-2.2,0.8-2.2,2.3v4.2h-1.3V7.5h1.3v1.3 C76.8,8.3,77.2,8,77.6,7.7z"></path> <path class="st5" d="M80.4,15.1c-0.2-0.2-0.3-0.4-0.3-0.6c0-0.2,0.1-0.5,0.3-0.6c0.2-0.2,0.4-0.3,0.6-0.3c0.2,0,0.4,0.1,0.6,0.3 c0.2,0.2,0.2,0.4,0.2,0.6c0,0.2-0.1,0.5-0.2,0.6c-0.2,0.2-0.4,0.3-0.6,0.3C80.7,15.3,80.5,15.2,80.4,15.1z"></path> <path class="st5" d="M91,8.2c-0.3-0.6-0.7-1-1.2-1.3c-0.5-0.3-1.1-0.5-1.8-0.5c-0.7,0-1.3,0.2-1.9,0.5c-0.6,0.3-1,0.8-1.3,1.4 c-0.3,0.6-0.5,1.3-0.5,2c0,0.8,0.2,1.4,0.5,2c0.3,0.6,0.7,1,1.3,1.3s1.2,0.5,1.9,0.5c1,0,1.8-0.3,2.4-0.9c0.6-0.6,1-1.3,1.1-2.3 h-3.9v-1h5.3v1c-0.1,0.8-0.3,1.6-0.8,2.2c-0.4,0.7-1,1.2-1.7,1.6c-0.7,0.4-1.5,0.6-2.4,0.6c-0.9,0-1.7-0.2-2.5-0.6 c-0.8-0.4-1.3-1-1.8-1.8c-0.4-0.8-0.7-1.6-0.7-2.6s0.2-1.8,0.7-2.6c0.4-0.8,1-1.4,1.8-1.8c0.8-0.4,1.6-0.6,2.5-0.6 c1,0,2,0.3,2.8,0.8c0.8,0.5,1.4,1.2,1.8,2.2H91z"></path> <path class="st5" d="M101.4,7.5v7.7h-1.3v-1.1c-0.2,0.4-0.6,0.7-1,0.9c-0.4,0.2-0.9,0.3-1.4,0.3c-0.6,0-1.1-0.1-1.6-0.4 c-0.5-0.2-0.9-0.6-1.1-1.1c-0.3-0.5-0.4-1.1-0.4-1.8V7.5h1.3v4.4c0,0.8,0.2,1.3,0.6,1.8s0.9,0.6,1.6,0.6c0.7,0,1.2-0.2,1.6-0.6 c0.4-0.4,0.6-1,0.6-1.8V7.5H101.4z"></path> <path class="st5" d="M105.8,7.7c0.4-0.2,0.9-0.4,1.5-0.4v1.3H107c-1.4,0-2.2,0.8-2.2,2.3v4.2h-1.3V7.5h1.3v1.3 C105.1,8.3,105.4,8,105.8,7.7z"></path> <path class="st5" d="M111.2,7.8c0.5-0.3,1.1-0.4,1.8-0.4c0.7,0,1.3,0.2,1.9,0.5c0.6,0.3,1,0.8,1.3,1.4c0.3,0.6,0.5,1.3,0.5,2.1 c0,0.8-0.2,1.5-0.5,2.1s-0.8,1.1-1.3,1.4c-0.6,0.3-1.2,0.5-1.9,0.5c-0.7,0-1.2-0.1-1.7-0.4c-0.5-0.3-0.9-0.7-1.1-1.1v5.1h-1.3 V7.5h1.3v1.4C110.4,8.5,110.7,8.1,111.2,7.8z M115,9.8c-0.2-0.4-0.6-0.8-1-1c-0.4-0.2-0.8-0.3-1.3-0.3c-0.5,0-0.9,0.1-1.3,0.3 c-0.4,0.2-0.7,0.6-1,1c-0.2,0.4-0.4,0.9-0.4,1.5c0,0.6,0.1,1.1,0.4,1.5c0.2,0.4,0.6,0.8,1,1c0.4,0.2,0.8,0.3,1.3,0.3 c0.5,0,0.9-0.1,1.3-0.3c0.4-0.2,0.7-0.6,1-1c0.2-0.4,0.4-1,0.4-1.5C115.4,10.7,115.2,10.2,115,9.8z"></path> <path class="st5" d="M120.6,7.7c0.4-0.2,0.9-0.4,1.5-0.4v1.3h-0.3c-1.4,0-2.2,0.8-2.2,2.3v4.2h-1.3V7.5h1.3v1.3 C119.9,8.3,120.2,8,120.6,7.7z"></path> <path class="st5" d="M130.6,11.8h-6.2c0,0.8,0.3,1.4,0.8,1.8c0.5,0.4,1.1,0.6,1.7,0.6c0.6,0,1-0.1,1.4-0.4c0.4-0.3,0.6-0.6,0.8-1 h1.4c-0.2,0.7-0.6,1.3-1.2,1.8c-0.6,0.5-1.4,0.7-2.3,0.7c-0.7,0-1.4-0.2-2-0.5c-0.6-0.3-1-0.8-1.4-1.4c-0.3-0.6-0.5-1.3-0.5-2.1 c0-0.8,0.2-1.5,0.5-2.1c0.3-0.6,0.8-1.1,1.3-1.4c0.6-0.3,1.2-0.5,2-0.5c0.7,0,1.4,0.2,1.9,0.5c0.6,0.3,1,0.8,1.3,1.3 c0.3,0.6,0.5,1.2,0.5,1.9C130.7,11.3,130.7,11.6,130.6,11.8z M129,9.5c-0.2-0.4-0.5-0.6-0.9-0.8c-0.4-0.2-0.8-0.3-1.2-0.3 c-0.6,0-1.2,0.2-1.7,0.6c-0.5,0.4-0.7,1-0.8,1.7h4.9C129.3,10.3,129.2,9.9,129,9.5z"></path> <path class="st5" d="M139.4,11.8h-6.2c0,0.8,0.3,1.4,0.8,1.8c0.5,0.4,1.1,0.6,1.7,0.6c0.6,0,1-0.1,1.4-0.4c0.4-0.3,0.6-0.6,0.8-1 h1.4c-0.2,0.7-0.6,1.3-1.2,1.8c-0.6,0.5-1.4,0.7-2.3,0.7c-0.7,0-1.4-0.2-2-0.5c-0.6-0.3-1-0.8-1.4-1.4c-0.3-0.6-0.5-1.3-0.5-2.1 c0-0.8,0.2-1.5,0.5-2.1c0.3-0.6,0.8-1.1,1.3-1.4c0.6-0.3,1.2-0.5,2-0.5c0.7,0,1.4,0.2,1.9,0.5c0.6,0.3,1,0.8,1.3,1.3 c0.3,0.6,0.5,1.2,0.5,1.9C139.4,11.3,139.4,11.6,139.4,11.8z M137.8,9.5c-0.2-0.4-0.5-0.6-0.9-0.8c-0.4-0.2-0.8-0.3-1.2-0.3 c-0.6,0-1.2,0.2-1.7,0.6c-0.5,0.4-0.7,1-0.8,1.7h4.9C138.1,10.3,138,9.9,137.8,9.5z"></path> <path class="st5" d="M142.7,8.6v4.6c0,0.4,0.1,0.6,0.2,0.8c0.2,0.2,0.4,0.2,0.8,0.2h0.9v1.1h-1.2c-0.7,0-1.3-0.2-1.6-0.5 c-0.4-0.3-0.5-0.9-0.5-1.6V8.6h-1V7.5h1V5.5h1.3v1.9h2v1.1H142.7z"></path> <path class="st5" d="M146.5,5.4h1.4l-1.4,3.2h-0.9L146.5,5.4z"></path> <path class="st5" d="M150.5,15c-0.5-0.2-0.8-0.5-1.1-0.8c-0.3-0.4-0.4-0.8-0.5-1.2h1.3c0,0.4,0.2,0.7,0.5,0.9 c0.3,0.2,0.8,0.4,1.3,0.4c0.5,0,0.9-0.1,1.2-0.3c0.3-0.2,0.4-0.5,0.4-0.8c0-0.3-0.2-0.6-0.5-0.8c-0.3-0.2-0.8-0.3-1.4-0.5 c-0.6-0.2-1-0.3-1.4-0.5c-0.4-0.2-0.7-0.4-0.9-0.7c-0.3-0.3-0.4-0.7-0.4-1.2c0-0.4,0.1-0.8,0.4-1.1c0.2-0.3,0.6-0.6,1-0.8 s0.9-0.3,1.5-0.3c0.9,0,1.5,0.2,2.1,0.6c0.5,0.4,0.8,1,0.8,1.8h-1.3c0-0.4-0.2-0.7-0.5-1c-0.3-0.2-0.7-0.4-1.2-0.4 c-0.5,0-0.8,0.1-1.1,0.3c-0.3,0.2-0.4,0.5-0.4,0.8c0,0.3,0.1,0.5,0.2,0.6s0.4,0.3,0.6,0.4c0.2,0.1,0.6,0.2,1,0.3 c0.6,0.2,1,0.3,1.4,0.4c0.3,0.1,0.6,0.4,0.9,0.7c0.2,0.3,0.4,0.7,0.4,1.1c0,0.4-0.1,0.8-0.4,1.1c-0.2,0.3-0.6,0.6-1,0.8 c-0.4,0.2-0.9,0.3-1.5,0.3C151.5,15.4,151,15.3,150.5,15z"></path> </g> <g> <g> <path class="st5" d="M85.3,44.4L85.2,29l-7.5,12.8l-1.4,0l-7.6-12.7L68.8,42c0,1.3-1.1,2.4-2.4,2.4h-0.5l-0.1-21l2.5-0.1 l8.8,14.8l8.5-14.8l2.5,0l0.1,21.1H85.3z"></path> </g> <g> <path class="st5" d="M96,44.4l-0.1-21l14.9-0.1l0.1,0.9c0,1-0.8,1.8-1.8,1.8H99l0.1,6.4l10.5-0.1l0.1,2.6L99,35l0.1,6.7 l12.2-0.1l0.1,2.7H96z"></path> </g> <g> <path class="st5" d="M117.5,44.4l-0.1-21l8.9-0.1c2.2,0,4.2,0.4,5.9,1.3c1.7,0.9,3.1,2.1,4,3.7c0.9,1.6,1.4,3.4,1.4,5.5 c0,2.1-0.5,3.9-1.4,5.5c-1,1.6-2.3,2.8-4,3.7c-1.7,0.9-3.7,1.3-5.9,1.3H117.5z M120.6,41.7l5.6-0.1c1.7,0,3.2-0.3,4.5-1 c1.3-0.7,2.3-1.6,3-2.8c0.7-1.2,1-2.6,1-4.1s-0.4-2.9-1-4.1c-0.7-1.2-1.7-2.1-3-2.8c-1.3-0.7-2.8-1-4.5-1h-5.6V41.7z"></path> </g> <g> <path class="st5" d="M166,44.4l-0.1-20.1c0-0.5,0.4-1,1-1h0.6l0.1,21.1H166z"></path> </g> <g> <path class="st5" d="M214.4,44.4l-0.1-21l14.1-0.1l0.1,0.5c0,0.5-0.4,1-1,1h-11.6L216,33l11.1-0.1l0.1,1.4l-11.2,0.1L216,43 l12.9-0.1l0.1,1.5H214.4z"></path> </g> <g> <path class="st5" d="M176.3,44.4l-0.1-20.1c0-0.5,0.4-1,1-1h0.6l0.1,19.7l12-0.1l0.1,1.5H176.3z"></path> </g> <g> <path class="st5" d="M195.4,44.4l-0.1-20.1c0-0.5,0.4-1,1-1h0.6l0.1,19.7l12-0.1l0.1,1.5H195.4z"></path> </g> <g> <path class="st5" d="M150.2,44.4l-9.4-21l1.7-0.1l8.5,19l8-18.1c0.2-0.5,0.8-0.9,1.3-0.9h0.7l-9.3,21.1H150.2z"></path> </g> </g> </g> </g> </svg> 